<svg width="59" height="50" viewBox="0 0 59 50" fill="none" xmlns="http://www.w3.org/2000/svg">
    <path d="M34.2416 0H24.3269V49.5737H34.2416V0Z" fill="#1D1D1B" />
    <path
        d="M51.4646 31.9929C55.4726 31.9929 58.7218 28.7438 58.7218 24.7357C58.7218 20.7277 55.4726 17.4785 51.4646 17.4785C47.4565 17.4785 44.2074 20.7277 44.2074 24.7357C44.2074 28.7438 47.4565 31.9929 51.4646 31.9929Z"
        fill="#1D1D1B" />
    <path
        d="M51.4135 34.5483C45.1273 34.3438 38.8923 31.1241 34.1393 24.7868C38.9434 18.4496 45.1273 15.1787 51.4135 15.0254V7.35938C42.5209 7.5638 34.0371 12.2145 28.0065 20.1872L24.5312 24.7868L28.0065 29.3865C34.0371 37.4102 42.5209 42.0099 51.4135 42.2143V34.5483Z"
        fill="#1D1D1B" />
    <path
        d="M7.25718 31.9929C11.2652 31.9929 14.5144 28.7438 14.5144 24.7357C14.5144 20.7277 11.2652 17.4785 7.25718 17.4785C3.24915 17.4785 0 20.7277 0 24.7357C0 28.7438 3.24915 31.9929 7.25718 31.9929Z"
        fill="#1D1D1B" />
    <path
        d="M7.30823 14.9743C13.5944 15.1788 19.8294 18.3985 24.5824 24.7357C19.7783 31.073 13.5944 34.3438 7.30823 34.4972V42.1632C16.2008 41.9588 24.6846 37.308 30.7152 29.3354L34.1905 24.7357L30.7152 20.1361C24.6846 12.1634 16.1497 7.51272 7.30823 7.30829V14.9743Z"
        fill="#1D1D1B" />
</svg>
    